<?xml version="1.0"?>
<svg xmlns="http://www.w3.org/2000/svg" xmlns:xlink="http://www.w3.org/1999/xlink" version="1.1" id="Capa_1" x="0px" y="0px" viewBox="0 0 496 496" style="enable-background:new 0 0 496 496;" xml:space="preserve" width="512px" height="512px" class=""><g><g>
	<g>
		<g>
			<path d="M248,0C137.72,0,48,89.72,48,200v96c0,110.28,89.72,200,200,200s200-89.72,200-200v-96C448,89.72,358.28,0,248,0z      M432,296c0,101.464-82.544,184-184,184S64,397.464,64,296v-96C64,98.536,146.544,16,248,16s184,82.536,184,184V296z" data-original="#000000" class="" fill="#000000"/>
			<path d="M248,176c-8.56,0-15.792,6.128-17.208,14.576L206.552,336h82.888L265.2,190.568C263.792,182.128,256.56,176,248,176z      M225.448,320l21.128-126.792c0.232-1.408,2.616-1.4,2.848-0.008L270.552,320H225.448z" data-original="#000000" class="" fill="#000000"/>
			<path d="M248,352c-42.184,0-75.408,24.552-76.8,25.6l-7.376,5.528l41.096,41.096l10.152-50.736     C224.8,370.328,236.032,368,248,368c11.944,0,23.184,2.344,32.944,5.512l10.144,50.712l41.096-41.096L324.8,377.6     C323.408,376.552,290.184,352,248,352z M195.088,391.776l-6.424-6.424c2.408-1.408,5.304-3,8.632-4.632L195.088,391.776z      M300.912,391.776l-2.2-11.016c3.312,1.624,6.208,3.208,8.608,4.608L300.912,391.776z" data-original="#000000" class="" fill="#000000"/>
			<path d="M312,312v16h6.056c19.752,0,38.32,7.688,52.288,21.656l11.312-11.312C364.664,321.36,342.08,312,318.056,312H312z" data-original="#000000" class="" fill="#000000"/>
			<path d="M184,328v-16h-6.056c-24.024,0-46.608,9.36-63.6,26.344l11.312,11.312C139.624,335.688,158.192,328,177.944,328H184z" data-original="#000000" class="" fill="#000000"/>
			<path d="M216,208c0-30.872-25.12-56-56-56c-35.288,0-64,28.712-64,64v48h64C190.88,264,216,238.872,216,208z M112,216     c0-26.472,21.528-48,48-48c22.056,0,40,17.944,40,40c0,22.056-17.944,40-40,40h-48V216z" data-original="#000000" class="" fill="#000000"/>
			<path d="M184,208c0-13.232-10.768-24-24-24s-24,10.768-24,24s10.768,24,24,24S184,221.232,184,208z M152,208c0-4.416,3.592-8,8-8     s8,3.584,8,8s-3.592,8-8,8S152,212.416,152,208z" data-original="#000000" class="" fill="#000000"/>
			<path d="M280,208c0,30.872,25.12,56,56,56h64v-48c0-35.288-28.712-64-64-64C305.12,152,280,177.128,280,208z M384,216v32h-48     c-22.056,0-40-17.944-40-40c0-22.056,17.944-40,40-40C362.472,168,384,189.528,384,216z" data-original="#000000" class="" fill="#000000"/>
			<path d="M312,208c0,13.232,10.768,24,24,24s24-10.768,24-24s-10.768-24-24-24S312,194.768,312,208z M344,208c0,4.416-3.592,8-8,8     c-4.408,0-8-3.584-8-8s3.592-8,8-8C340.408,200,344,203.584,344,208z" data-original="#000000" class="" fill="#000000"/>
			<rect x="224" y="120" width="48" height="16" data-original="#000000" class="" fill="#000000"/>
			<path d="M337.144,132.12l13.72-8.232C349.784,122.096,323.664,80,248,80s-101.784,42.096-102.856,43.88l13.72,8.232     C159.08,131.76,181.304,96,248,96C314.064,96,336.256,130.688,337.144,132.12z" data-original="#000000" class="" fill="#000000"/>
			<path d="M248,64c78.152,0,105.216,36.264,105.448,36.584l13.112-9.168C365.312,89.64,335.168,48,248,48     S130.688,89.64,129.448,91.416l13.08,9.216C142.784,100.264,169.848,64,248,64z" data-original="#000000" class="" fill="#000000"/>
		</g>
	</g>
</g></g> </svg>
